<svg xmlns="http://www.w3.org/2000/svg" version="1.1" xmlns:xlink="http://www.w3.org/1999/xlink" xmlns:svgjs="http://svgjs.com/svgjs" width="512" height="512" x="0" y="0" viewBox="0 0 682.66669 682.66669" style="enable-background:new 0 0 512 512" xml:space="preserve" class=""><g><path xmlns="http://www.w3.org/2000/svg" d="m460.175781 215.175781-104.800781 104.800781 104.800781 104.796876-35.351562 35.359374-104.800781-104.800781-104.796876 104.800781-35.359374-35.359374 104.800781-104.796876-104.800781-104.800781 35.359374-35.351562 104.796876 104.800781 104.800781-104.800781zm179.824219 104.824219c0 85.472656-33.285156 165.835938-93.726562 226.273438-60.4375 60.441406-140.800782 93.726562-226.273438 93.726562s-165.835938-33.285156-226.273438-93.726562c-60.441406-60.4375-93.726562-140.800782-93.726562-226.273438s33.285156-165.835938 93.726562-226.273438c60.4375-60.441406 140.800782-93.726562 226.273438-93.726562s165.835938 33.285156 226.273438 93.726562c60.441406 60.4375 93.726562 140.800782 93.726562 226.273438zm-50 0c0-148.875-121.125-270-270-270s-270 121.125-270 270 121.125 270 270 270 270-121.125 270-270zm0 0" fill="#000000" data-original="#000000" class=""></path></g></svg>